<svg xmlns="http://www.w3.org/2000/svg" width="16" height="16" viewBox="0 0 16 16" fill="none">
	<path stroke="#34373D" stroke-width="1.25" d="M1.778 6.063v7.261c0 .926.796 1.676 1.778 1.676h8.889c.981 0 1.777-.75 1.777-1.676V6.063" />
	<path stroke="#34373D" stroke-width="1.25" d="M3.196 2h9.608c.723 0 1.016.08 1.3.23.286.151.51.372.662.653.153.282.234.57.234 1.283v2.15H1v-2.15c0-.713.081-1.001.234-1.283a1.58 1.58 0 0 1 .661-.652C2.18 2.08 2.473 2 3.195 2Z" clip-rule="evenodd" />
	<rect width="4" height="1" x="6" y="10" fill="#34373D" rx=".5" />
</svg>
