<svg xmlns="http://www.w3.org/2000/svg" viewBox="0 0 16 16" width="16" height="16">
    <path
      d="M2.564 2h4.872c.892 0 1.215.093 1.54.267.327.174.583.43.757.756.174.326.267.65.267 1.54v6.873c0 .892-.093 1.215-.267 1.54a1.81 1.81 0 01-.756.757c-.326.174-.65.267-1.54.267H2.563c-.892 0-1.215-.093-1.54-.267a1.81 1.81 0 01-.757-.756C.093 12.65 0 12.327 0 11.437V4.563c0-.892.093-1.215.267-1.54a1.81 1.81 0 01.756-.757C1.35 2.093 1.673 2 2.563 2zm8.729 5.296l3.001-2.992A1 1 0 0116 5.012v5.984a1 1 0 01-1.706.708l-3.001-2.991a1.001 1.001 0 01-.002-1.415l.002-.002z"
      fill="#000"
      fill-rule="evenodd"
    />
</svg>
