<svg xmlns="http://www.w3.org/2000/svg" viewBox="0 0 16 16" width="16" height="16">
    <g fill="#000" fill-rule="evenodd">
      <path d="M.061 3.62l9.552 9.552a1.808 1.808 0 01-.636.56c-.301.162-.6.253-1.345.266L2.564 14c-.892 0-1.215-.093-1.54-.267a1.81 1.81 0 01-.757-.756c-.16-.301-.252-.6-.265-1.345L0 4.564c0-.422.02-.716.061-.944zm15.647.686c.187.188.292.442.292.706v5.984a1 1 0 01-1.706.708l-3.001-2.991a1 1 0 01-.085-1.32l.085-.097 3.001-2.992a1 1 0 011.414.002zM10 11.44L.9 2.34l.123-.072c.31-.166.618-.258 1.415-.266L10 9.56v1.878zM7.436 2c.892 0 1.215.093 1.54.267.327.174.583.43.757.756.16.301.252.6.265 1.345L10 7.439 4.56 2h2.876z" />
      <path fill-rule="nonzero" d="M1.03.47l13.5 13.5-1.06 1.06-13.5-13.5z" />
    </g>
</svg>
