<svg width="12" height="12" viewBox="0 0 12 12" fill="none" xmlns="http://www.w3.org/2000/svg">
  <path d="M2.87689 5.43553L4.57879 7.13593C4.61703 7.17414 4.69352 7.17414 4.73177 7.13593L9.97132 1.8819C10.0096 1.84369 10.0096 1.76726 9.97132 1.72905L8.26942 0.0286583C8.23117 -0.00955278 8.15468 -0.00955278 8.11644 0.0286583L2.85777 5.28269C2.83865 5.3209 2.83865 5.39732 2.87689 5.43553Z" fill="#34373D"/>
  <path d="M3.56544 8.1509L1.15601 8.99155C1.0604 9.02976 0.983907 8.93423 1.00303 8.8387L1.84442 6.4314C1.86354 6.35498 1.97827 6.33587 2.03564 6.39319L3.60368 7.95985C3.68017 8.01716 3.66105 8.11269 3.56544 8.1509Z" fill="#34373D"/>
  <path d="M12 11.0462V11.959C12 11.9795 11.915 12 11.8301 12L0.169912 11.9949C0.0849558 11.9949 0 11.9744 0 11.9538V11.041C0 11.0205 0.0849558 11 0.169912 11L11.8513 11C11.915 11.0051 12 11.0256 12 11.0462Z" fill="#34373D"/>
</svg>
