<svg width="16" height="16" viewBox="0 0 16 16" xmlns="http://www.w3.org/2000/svg">
  <path d="M13.82 0C15.02 0 16 .97 16 2.18v8.21c0 1.2-.97 2.18-2.18 2.18H4.26L0 16V2.18C0 .98.97 0 2.18 0zM6.37 2.37c-.12-.12-.23-.1-.33-.04l-.8.48c-.13.07-.17.16-.14.31.14.9-.17 1.67-.95 2.33a.87.87 0 01-.12.09c-.1.06-.23.1-.34.15l-.03.01a.5.5 0 00-.08.04c-.1.05-.14.13-.14.25v.61L3.43 7c0 .14.05.23.18.28.46.17.82.5 1.11 1.04.3.53.38 1.06.26 1.63-.03.12.01.21.12.28.3.2.56.37.83.53.03.03.08.04.12.05.04 0 .08 0 .11-.03a.32.32 0 00.07-.06c.1-.1.2-.18.31-.25.35-.2.84-.3 1.32-.25.5.05.93.25 1.18.54.03.04.08.07.13.1h.06c.06 0 .13-.01.18-.05l.38-.23.39-.22c.18-.11.17-.25.15-.36-.1-.39-.03-.88.2-1.35.21-.47.54-.86.9-1.07.12-.07.24-.12.36-.15.06-.01.13-.04.17-.13A62.17 62.17 0 0012 6.13c0-.12-.05-.2-.16-.25a2.1 2.1 0 01-1.16-1.1 2.3 2.3 0 01-.23-1.56c.03-.14-.01-.24-.13-.3l-.28-.2L10 2.7l-.46-.3a.25.25 0 00-.28 0 .51.51 0 00-.07.05l-.03.02c-.09.08-.19.16-.3.22a2.7 2.7 0 01-1.24.26 1.94 1.94 0 01-1.24-.57zm1.34 2.2a2 2 0 110 4 2 2 0 010-4z" fill-rule="nonzero"/>
</svg>
