<svg width="78" height="25" viewBox="0 0 78 25" xmlns="http://www.w3.org/2000/svg">
  <path d="M14.73 19.79a7.25 7.25 0 0 1-1.74-4.7V3.43a1.73 1.73 0 0 1 3.47 0v11.64a7.2 7.2 0 0 1-1.73 4.7zm13-4.7A7.32 7.32 0 0 1 16 20.95a8.94 8.94 0 0 0 2.18-5.88V3.44a3.46 3.46 0 1 0-6.93 0v11.64c0 2.25.87 4.3 2.24 5.88a7.4 7.4 0 0 1-11.77-5.88V.88H0v14.2a9.1 9.1 0 0 0 14.78 7.08 9.05 9.05 0 0 0 14.67-7.08V.88h-1.73v14.2zm6.92 8.57h1.74V.84h-1.74v22.82zM51.55.44a9.99 9.99 0 0 0-8.23 4.33V.84h-1.74v22.82h1.74V10.34c0-4.5 3.7-8.18 8.23-8.18V.44zM54.8 18.8a10.1 10.1 0 0 1 .59-13.68 10.23 10.23 0 0 1 13.75-.58L54.8 18.8zM71.6 4.54a11.97 11.97 0 0 0-17.44-.63 11.8 11.8 0 0 0 0 16.74 11.97 11.97 0 0 0 16.85 0l-1.23-1.21a10.23 10.23 0 0 1-13.75.58l7.17-7.13 8.4-8.35zm2.72-3.07v-.34h-1.88v.34h.74v1.9h.4v-1.9h.74zm2.8 1.9V1.14h-.56l-.64 1.75-.65-1.75h-.58v2.25h.39V1.55l.66 1.83h.33l.67-1.84v1.84h.39z"/>
</svg>
