<svg width="16" height="16" xmlns="http://www.w3.org/2000/svg"><g fill="none" fill-rule="evenodd"><path d="M0 .02h16v15.901H0z"/><g fill="#000" fill-rule="nonzero"><path d="M7.987.507c-1.6 0-2.9 1.292-2.9 2.882V7.95c0 1.59 1.3 2.882 2.9 2.882 1.6 0 2.9-1.292 2.9-2.882V3.4c0-1.59-1.3-2.892-2.9-2.892"/><path d="M13.197 6.986h-1.22c0 2.684-1.78 4.86-3.97 4.86-2.19 0-3.97-2.176-3.97-4.86h-1.23c0 3.091 1.99 5.625 4.55 5.993v1.192h-1.66v1.213h4.35V14.17h-1.47V12.99c2.59-.338 4.62-2.882 4.62-6.003"/></g></g></svg>