<svg xmlns="http://www.w3.org/2000/svg" width="16" height="16" viewBox="0 0 16 16">
  <path d="M5.182 0C3.582 0 2.28 1.303 2.28 2.903v4.584c0 1.6 1.302 2.902 2.902 2.902 1.602 0 2.903-1.302 2.903-2.902V2.903C8.085 1.303 6.784 0 5.182 0" transform="translate(2.667)"/>
  <path d="M10.388 6.519H9.167c0 2.696-1.783 4.89-3.974 4.89-2.189 0-3.97-2.194-3.97-4.89H0c0 3.11 1.992 5.656 4.55 6.035v1.197H2.89v1.221h4.347v-1.221H5.772v-1.19c2.59-.342 4.616-2.905 4.616-6.042" transform="translate(2.667)"/>
</svg>
