<?xml version="1.0" encoding="UTF-8"?>
<svg width="16px" height="16px" viewBox="0 0 16 16" version="1.1" xmlns="http://www.w3.org/2000/svg" xmlns:xlink="http://www.w3.org/1999/xlink">
    <title>Iconography / Unuted Mic</title>
    <g id="Icon-Fix" stroke="none" stroke-width="1" fill="none" fill-rule="evenodd">
        <g id="Iconography-/-Unuted-Mic">
            <rect id="Rectangle_3_" x="0" y="0.0198757764" width="16" height="15.9006211"></rect>
            <g id="Group-6_1_" transform="translate(2.766667, 0.496894)" fill="#000000" fill-rule="nonzero">
                <path d="M5.22,0.0099378882 C3.62,0.0099378882 2.32,1.30186335 2.32,2.89192547 L2.32,7.45341615 C2.32,9.04347826 3.62,10.3354037 5.22,10.3354037 C6.82,10.3354037 8.12,9.04347826 8.12,7.45341615 L8.12,2.90186335 C8.12,1.31180124 6.82,0.0099378882 5.22,0.0099378882" id="Fill-1_1_"></path>
                <path d="M10.43,6.48944099 L9.21,6.48944099 C9.21,9.17267081 7.43,11.3490683 5.24,11.3490683 C3.05,11.3490683 1.27,9.17267081 1.27,6.48944099 L0.04,6.48944099 C0.04,9.58012422 2.03,12.1142857 4.59,12.4819876 L4.59,13.6745342 L2.93,13.6745342 L2.93,14.8869565 L7.28,14.8869565 L7.28,13.6745342 L5.81,13.6745342 L5.81,12.4919255 C8.4,12.1540373 10.43,9.60993789 10.43,6.48944099" id="Fill-3_1_"></path>
            </g>
        </g>
    </g>
</svg>