<svg xmlns="http://www.w3.org/2000/svg" width="16" height="16">
    <path d="M8 11.867c-.534 0-.934-.134-1.334-.267l-.933.933c.533.267 1.067.534 1.6.534v1.2h-1.6v1.2h4.4v-1.2h-1.6v-1.2c2.533-.4 4.667-2.934 4.667-6H12c0 2.666-1.734 4.8-4 4.8zm4.8-9.6L10.933 4v-.533C10.933 1.867 9.6.533 8 .533c-1.6 0-2.934 1.334-2.934 2.934V8c0 .533.134 1.067.4 1.467L4.933 10C4.4 9.2 4 8.133 4 7.067H2.8c0 1.466.533 2.8 1.2 3.866L2.133 12.8l.933.933L13.6 3.2l-.8-.933z"/>
    <path d="M10.933 8v-.667L7.466 10.8h.667c1.467.133 2.8-1.2 2.8-2.8z"/>
</svg>
