<?xml version="1.0" encoding="UTF-8"?>
<svg width="16px" height="16px" viewBox="0 0 16 16" version="1.1" xmlns="http://www.w3.org/2000/svg" xmlns:xlink="http://www.w3.org/1999/xlink">
    <title>Iconography / Muted Mic</title>
    <g id="Icon-Fix" stroke="none" stroke-width="1" fill="none" fill-rule="evenodd">
        <g id="Iconography-/-Muted-Mic">
            <rect id="Rectangle_2_" x="0" y="0.0198757764" width="15.9006211" height="15.9006211"></rect>
            <g id="Group" transform="translate(1.788820, 0.496894)" fill="#000000" fill-rule="nonzero">
                <path d="M6.16149068,11.3490683 C5.57515528,11.3490683 5.02857143,11.1900621 4.52173913,10.9118012 L3.65714286,11.7763975 C4.22360248,12.1440994 4.84968944,12.3925466 5.51552795,12.4919255 L5.51552795,13.684472 L3.8757764,13.684472 L3.8757764,14.8968944 L8.19875776,14.8968944 L8.19875776,13.684472 L6.7378882,13.684472 L6.7378882,12.5018634 C9.31180124,12.1639752 11.3291925,9.60993789 11.3291925,6.49937888 L10.1167702,6.49937888 C10.1068323,9.17267081 8.3378882,11.3490683 6.16149068,11.3490683 Z" id="Path"></path>
                <path d="M9.03354037,7.45341615 L9.03354037,6.41987578 L5.24720497,10.1863354 C5.53540373,10.2757764 5.83354037,10.3354037 6.1515528,10.3354037 C7.74161491,10.3354037 9.03354037,9.04347826 9.03354037,7.45341615 Z" id="Path"></path>
                <path d="M10.5242236,1.61987578 L9.03354037,3.11055901 L9.03354037,2.90186335 C9.03354037,1.31180124 7.74161491,0.0198757764 6.1515528,0.0198757764 C4.56149068,0.0198757764 3.26956522,1.31180124 3.26956522,2.90186335 L3.26956522,7.45341615 C3.26956522,7.86086957 3.35900621,8.25838509 3.50807453,8.60621118 L2.90186335,9.21242236 C2.47453416,8.43726708 2.21614907,7.4931677 2.21614907,6.48944099 L1.00372671,6.48944099 C1.00372671,7.84099379 1.38136646,9.08322981 2.0173913,10.0869565 L-3.53064713e-16,12.0944099 L0.914285714,13.0086957 L11.4385093,2.53416149 L10.5242236,1.61987578 Z" id="Path"></path>
            </g>
        </g>
    </g>
</svg>