<svg xmlns="http://www.w3.org/2000/svg" viewBox="0 0 16 16" width="16" height="16">
    <g fill="#000" fill-rule="evenodd">
      <path d="M3.75 7.25V8a4.25 4.25 0 007.225 3.035l1.06 1.06a5.73 5.73 0 01-3.285 1.606V16h-1.5v-2.298a5.752 5.752 0 01-4.996-5.481L2.25 8v-.75h1.5zM5 5.06l5.091 5.091A3 3 0 015 8V5.06zm8.75 2.19V8c0 1.06-.286 2.052-.786 2.904l-1.11-1.11a4.223 4.223 0 00.391-1.588L12.25 8v-.75h1.5zM8 1a3 3 0 013 3v4c0 .286-.04.563-.115.825L5.143 3.083A3.001 3.001 0 018 1z" />
      <path fill-rule="nonzero" d="M1.03.97l14 14-1.06 1.06-14-14z" />
    </g>
</svg>
