<svg width="16" height="14" viewBox="0 0 16 14" fill="none" xmlns="http://www.w3.org/2000/svg">
<path fill-rule="evenodd" clip-rule="evenodd" d="M2.56709 1.14897C2.97204 0.77342 3.60476 0.79725 3.98031 1.20219C4.35586 1.60714 4.33203 2.23986 3.92708 2.61541C2.70957 3.74454 2.00586 5.32259 2.00586 7.01585C2.00586 8.75865 2.75171 10.3786 4.03204 11.5114C4.44568 11.8773 4.48433 12.5093 4.11837 12.923C3.75242 13.3366 3.12043 13.3752 2.7068 13.0093C1.0018 11.5008 0.00585938 9.33765 0.00585938 7.01585C0.00585938 4.76016 0.945639 2.65272 2.56709 1.14897ZM13.2567 13.0516C12.8401 13.4143 12.2085 13.3706 11.8458 12.954C11.4832 12.5375 11.5269 11.9058 11.9434 11.5432C13.2454 10.4097 14.0059 8.77554 14.0059 7.01585C14.0059 5.26957 13.257 3.64664 11.9722 2.51373C11.558 2.14846 11.5183 1.51654 11.8835 1.1023C12.2488 0.68806 12.8807 0.648364 13.295 1.01364C15.0059 2.52231 16.0059 4.6894 16.0059 7.01585C16.0059 9.36019 14.9904 11.5423 13.2567 13.0516ZM5.34694 4.02748C5.75945 3.66025 6.39155 3.69696 6.75878 4.10946C7.126 4.52197 7.0893 5.15407 6.67679 5.5213C6.25219 5.89929 6.00586 6.43654 6.00586 7.01585C6.00586 7.59524 6.25225 8.13255 6.67694 8.51055C7.08949 8.87773 7.12626 9.50983 6.75907 9.92237C6.39189 10.3349 5.75979 10.3717 5.34725 10.0045C4.50053 9.25089 4.00586 8.17214 4.00586 7.01585C4.00586 5.85971 4.50041 4.78109 5.34694 4.02748ZM10.6811 9.98959C10.2706 10.3591 9.63834 10.3258 9.26887 9.91532C8.89939 9.50482 8.93265 8.87253 9.34314 8.50306C9.76283 8.12531 10.0059 7.59132 10.0059 7.01585C10.0059 6.43701 9.75994 5.90016 9.33593 5.52219C8.92367 5.15469 8.88739 4.52257 9.25489 4.1103C9.62239 3.69804 10.2545 3.66176 10.6668 4.02926C11.5121 4.78282 12.0059 5.86065 12.0059 7.01585C12.0059 8.16429 11.5179 9.23644 10.6811 9.98959Z" fill="black"/>
</svg>
