<svg width="16" height="16" viewBox="0 0 16 16" fill="none" xmlns="http://www.w3.org/2000/svg">
<path fill-rule="evenodd" clip-rule="evenodd" d="M8 1C7.44772 1 7 1.44772 7 2V6C7 6.55228 7.44772 7 8 7H14C14.5523 7 15 6.55228 15 6V2C15 1.44772 14.5523 1 14 1H8ZM0.66947 3.58579C1.0831 3.22386 1.65453 3 2.28571 3H5V5H2V13H12V9H14V13C14 14.1046 12.9767 15 11.7143 15H2.28571C1.02335 15 0 14.1046 0 13V5C0 4.96548 0.000999365 4.93117 0.00297416 4.89708C0.0218406 4.57141 0.129736 4.2663 0.305788 4C0.406153 3.84819 0.52867 3.70899 0.66947 3.58579Z" fill="black"/>
</svg>
