<svg xmlns="http://www.w3.org/2000/svg" width="16" height="17" viewBox="0 0 16 17" fill="none">
	<path fill="#34373D" d="M11.145 10.469v-.625a.625.625 0 0 0-.327.092l.327.533Zm3.272 4.203.296.55a.625.625 0 0 0 .329-.55h-.625Zm-13.5 0H.292c0 .23.126.44.328.55l.297-.55Zm3.27-4.203.328-.533a.625.625 0 0 0-.327-.092v.625Zm6.958.625h.376v-1.25h-.376v1.25Zm.376 0c1.242 0 2.27 1.033 2.27 2.328h1.25c0-1.96-1.564-3.578-3.52-3.578v1.25Zm2.27 2.328v1.25h1.25v-1.25h-1.25Zm.329.7a13.542 13.542 0 0 1-6.453 1.628V17c2.544 0 4.943-.643 7.046-1.778l-.593-1.1ZM7.667 15.75c-2.332 0-4.527-.588-6.454-1.628l-.593 1.1A14.792 14.792 0 0 0 7.667 17v-1.25Zm-6.125-1.078v-1.25H.292v1.25h1.25Zm0-1.25c0-1.298 1.026-2.328 2.27-2.328v-1.25c-1.958 0-3.52 1.614-3.52 3.578h1.25Zm2.27-2.328h.376v-1.25h-.375v1.25ZM3.86 11a7.24 7.24 0 0 0 3.807 1.077v-1.25a5.99 5.99 0 0 1-3.152-.892l-.655 1.065Zm3.807 1.077a7.24 7.24 0 0 0 3.806-1.077l-.655-1.065a5.99 5.99 0 0 1-3.151.892v1.25Zm0-2.953c2.487 0 4.482-2.055 4.482-4.563h-1.25c0 1.842-1.46 3.313-3.232 3.313v1.25Zm4.482-4.563C12.149 2.055 10.154 0 7.667 0v1.25c1.773 0 3.232 1.47 3.232 3.313h1.25ZM7.667 0C5.179 0 3.184 2.055 3.184 4.563h1.25c0-1.842 1.46-3.313 3.233-3.313V0ZM3.184 4.563c0 2.507 1.995 4.562 4.483 4.562v-1.25c-1.773 0-3.233-1.47-3.233-3.313h-1.25Z" />
</svg>
