<svg xmlns="http://www.w3.org/2000/svg" width="288" height="374" viewBox="0 0 288 374">
  <path fill-rule="evenodd" d="M5.65 140.47a2.82 2.82 0 1 1-5.65 0V48.7a2.82 2.82 0 0 1 2.82-2.83c8.83 0 18.21-.87 28.09-2.56 20.7-3.53 42.84-10.47 65.42-19.81a446.55 446.55 0 0 0 33.32-15.44 362.62 362.62 0 0 0 9.54-5.08 221.3 221.3 0 0 0 3.17-1.78c1.1-.64 2.19-.64 3.07-.12l.85.49 2.53 1.42a363.75 363.75 0 0 0 9.54 5.07 446.55 446.55 0 0 0 33.32 15.44c22.58 9.34 44.73 16.28 65.42 19.81a167.63 167.63 0 0 0 28.09 2.56A2.82 2.82 0 0 1 288 48.7v36.7a2.82 2.82 0 1 1-5.65 0V51.5a177.14 177.14 0 0 1-26.2-2.62c-21.17-3.62-43.7-10.67-66.64-20.17a452.25 452.25 0 0 1-33.74-15.62 367.54 367.54 0 0 1-9.7-5.16L144 6.77l-2.07 1.16a368.54 368.54 0 0 1-9.7 5.16A452.27 452.27 0 0 1 98.5 28.72C75.56 38.2 53.02 45.27 31.86 48.88a177 177 0 0 1-26.21 2.61v88.98zm240 125.63a18.35 18.35 0 1 1 0-36.7 18.35 18.35 0 0 1 0 36.7m0-42.35a24 24 0 1 0 0 48 24 24 0 0 0 0-48m12.74 26.9a2.82 2.82 0 0 0-3.89.9c-1.66 2.66-4.27 3.97-8.2 3.97-3.98 0-6.88-1.37-8.98-4.17a2.82 2.82 0 0 0-4.52 3.39c3.2 4.26 7.79 6.42 13.5 6.42 5.8 0 10.24-2.22 13-6.62a2.82 2.82 0 0 0-.9-3.89m-5.47-4.89a3.3 3.3 0 1 0 0-6.61 3.3 3.3 0 0 0 0 6.61m-13.24 0a3.3 3.3 0 1 0 0-6.61 3.3 3.3 0 0 0 0 6.61m39.84-151.88h-50.84a2.82 2.82 0 1 1 0-5.64c.15 0 .32.01.5.05a2.82 2.82 0 0 0 3.16-3.74 14.06 14.06 0 0 1-.84-4.78c0-7.8 6.33-14.12 14.12-14.12a14.12 14.12 0 0 1 13.33 9.45 2.83 2.83 0 0 0 2.9 1.88c.33-.03.53-.04.72-.04a8.47 8.47 0 0 1 8.47 8.47 2.82 2.82 0 0 0 5.65 0c0-7.48-5.82-13.6-13.19-14.09A19.77 19.77 0 0 0 245.64 60a19.77 19.77 0 0 0-19.51 22.98 8.47 8.47 0 0 0 2.56 16.55h50.84c2.2 0 2.82.62 2.82 2.82v127.06c0 41.97-19.5 77.42-52.6 103.67-27.03 21.45-61.57 34.69-85.79 34.69-12.76 0-29.3-3.89-46.04-11.04a172.47 172.47 0 0 1-50.8-33.25 2.82 2.82 0 1 0-3.9 4.09c29.33 27.96 71.15 45.84 100.74 45.84 25.56 0 61.32-13.7 89.31-35.9C267.63 310.24 288 273.22 288 229.4V102.35c0-5.32-3.15-8.47-8.47-8.47M53.65 110.81H19.77a2.82 2.82 0 0 1-2.83-2.82V62.8a2.82 2.82 0 0 1 2.83-2.82h22.58c.75 0 1.47.3 2 .82l11.3 11.3c.52.53.82 1.24.82 2v33.88a2.82 2.82 0 0 1-2.82 2.82zm-2.83-5.65V75.27l-9.64-9.64h-18.6v39.53h28.24zM31.18 84a2.88 2.88 0 0 1-2.95-2.83 2.88 2.88 0 0 1 2.95-2.82h11.05a2.88 2.88 0 0 1 2.95 2.82A2.88 2.88 0 0 1 42.23 84H31.18zm0 9.88a2.88 2.88 0 0 1-2.95-2.83 2.88 2.88 0 0 1 2.95-2.82h11.05a2.88 2.88 0 0 1 2.95 2.83 2.88 2.88 0 0 1-2.95 2.82H31.18zM144 187.04a8.47 8.47 0 1 1 0 16.94 8.47 8.47 0 0 1 0-16.94m0 22.6a14.12 14.12 0 1 0 0-28.24 14.12 14.12 0 0 0 0 28.23m14.12 16.94h-28.24v-8.47c0-1.36.43-2 1.27-2.41.3-.16.67-.27 1.03-.34l10.56 5.28c.8.4 1.73.4 2.52 0l10.64-5.32c.95.12 1.46.53 1.81 1.23a4.11 4.11 0 0 1 .4 1.56v8.47zm5.52-9.81a9.63 9.63 0 0 0-.88-2.74c-1.34-2.7-3.89-4.39-7.47-4.39-.43 0-.87.1-1.26.3L144 214.95l-10.03-5.02a2.82 2.82 0 0 0-1.26-.3c-.33 0-.79.04-1.35.13a9.63 9.63 0 0 0-2.74.88c-2.69 1.34-4.39 3.88-4.39 7.46v11.3a2.82 2.82 0 0 0 2.83 2.82h33.88a2.82 2.82 0 0 0 2.82-2.82v-11.3c0-.32-.03-.78-.12-1.34zM144 131.28a8.47 8.47 0 1 1 0 16.94 8.47 8.47 0 0 1 0-16.94m0 22.59a14.12 14.12 0 1 0 0-28.24 14.12 14.12 0 0 0 0 28.24m14.12 16.94h-28.24v-8.47c0-1.36.43-2 1.27-2.42.3-.15.67-.27 1.03-.33l10.56 5.28c.8.4 1.73.4 2.52 0l10.64-5.32c.95.11 1.46.52 1.81 1.23a4.08 4.08 0 0 1 .4 1.56v8.47zm5.52-9.82a9.63 9.63 0 0 0-.88-2.74c-1.34-2.69-3.89-4.38-7.47-4.38-.43 0-.87.1-1.26.3L144 159.18l-10.03-5.01a2.83 2.83 0 0 0-1.26-.3c-.33 0-.79.03-1.35.12a9.65 9.65 0 0 0-2.74.88c-2.69 1.35-4.39 3.89-4.39 7.47v11.3a2.82 2.82 0 0 0 2.83 2.82h33.88a2.82 2.82 0 0 0 2.82-2.83v-11.3c0-.31-.03-.77-.12-1.34zM192 170.1a8.47 8.47 0 1 1 0 16.94 8.47 8.47 0 0 1 0-16.94m0 22.6a14.12 14.12 0 1 0 0-28.24 14.12 14.12 0 0 0 0 28.23m14.12 16.94h-28.24v-8.47c0-1.36.43-2 1.27-2.41a3.97 3.97 0 0 1 1.03-.34l10.56 5.28c.8.4 1.73.4 2.52 0l10.64-5.32c.95.12 1.46.53 1.81 1.23a4.1 4.1 0 0 1 .4 1.56v8.47zm5.52-9.81a9.63 9.63 0 0 0-.88-2.74c-1.34-2.7-3.89-4.39-7.47-4.39-.43 0-.87.1-1.26.3L192 198.01l-10.03-5.02a2.82 2.82 0 0 0-1.26-.3c-.33 0-.79.04-1.35.13a9.63 9.63 0 0 0-2.74.88c-2.69 1.34-4.39 3.88-4.39 7.46v11.3a2.82 2.82 0 0 0 2.83 2.82h33.88a2.82 2.82 0 0 0 2.83-2.82v-11.3c0-.32-.04-.78-.13-1.34zM96 170.8a8.47 8.47 0 1 1 0 16.94 8.47 8.47 0 0 1 0-16.94m0 22.59a14.12 14.12 0 1 0 0-28.24 14.12 14.12 0 0 0 0 28.24m14.12 16.94H81.88v-8.47c0-1.36.43-2 1.27-2.42.3-.15.67-.27 1.03-.33l10.56 5.27c.8.4 1.73.4 2.52 0l10.64-5.31c.95.11 1.46.52 1.81 1.23a4.1 4.1 0 0 1 .4 1.56v8.47zm5.52-9.82a9.68 9.68 0 0 0-.88-2.74c-1.34-2.69-3.89-4.38-7.47-4.38-.43 0-.87.1-1.26.3L96 198.7l-10.03-5.01a2.82 2.82 0 0 0-1.26-.3c-.33 0-.79.03-1.35.13a9.63 9.63 0 0 0-2.74.87c-2.69 1.35-4.39 3.89-4.39 7.47v11.3a2.82 2.82 0 0 0 2.83 2.82h33.88a2.82 2.82 0 0 0 2.82-2.83v-11.3c0-.31-.03-.78-.12-1.34zM67.76 311.28h-3.53c-.23 0-.25 0-.82-.58-1.54-1.55-2.7-2.24-4.82-2.24s-3.28.7-4.82 2.24c-.58.57-.6.58-.83.58-.24 0-.25 0-.83-.58-1.54-1.55-2.7-2.24-4.82-2.24-2.11 0-3.28.7-4.82 2.24-.57.57-.59.58-.82.58-.24 0-.25 0-.83-.58-1.54-1.55-2.7-2.24-4.82-2.24-.46 0-1.65-.64-3.11-1.89a36.09 36.09 0 0 1-4.5-4.74A126.21 126.21 0 0 1 5.64 229.4v-66.25-.05-.05c0-8.65 4.34-12.63 14.14-12.71h23.27c.75 0 1.47-.3 2-.83l6.47-6.47v3.06a2.82 2.82 0 0 0 5.65 0v-9.88c0-.19-.02-.37-.06-.54l-.01-.08a2.72 2.72 0 0 0-.16-.48 2.76 2.76 0 0 0-.97-1.2l-.1-.06a2.98 2.98 0 0 0-.38-.21l-.06-.03a2.92 2.92 0 0 0-.47-.15l-.1-.02a2.83 2.83 0 0 0-.65-.05h-9.75a2.82 2.82 0 0 0 0 5.65h3.06l-5.64 5.64H19.76C6.96 144.8 0 151.17 0 163.04v66.36c0 27.82 8.52 53.67 23.8 75.72l.06.08.05.08c4.19 5.23 8.42 8.82 12.09 8.82.24 0 .25.01.83.59 1.54 1.54 2.7 2.24 4.82 2.24s3.28-.7 4.82-2.24c.57-.58.59-.59.82-.59s.25.01.83.59c1.54 1.54 2.7 2.24 4.82 2.24s3.28-.7 4.82-2.24c.58-.58.6-.59.83-.59s.25.01.82.59c1.55 1.54 2.7 2.24 4.82 2.24h3.53a2.82 2.82 0 0 0 0-5.65m31.06-14.78l-2.49-4.99h4.98l-2.49 4.98zm-4.23-46.63h8.47v-3.53h-8.47v3.53zm0 36h8.47V255.5h-8.47v30.36zm14.11 2.84V243.52a2.82 2.82 0 0 0-2.82-2.83H91.77a2.82 2.82 0 0 0-2.83 2.83V288.7a2.8 2.8 0 0 0 .26 1.14l.04.1 7.06 14.12a2.82 2.82 0 0 0 5.05 0l7.06-14.12.04-.1a2.77 2.77 0 0 0 .25-1.14zm1.42 19.75a2.82 2.82 0 0 1 0-5.65c1.41 0 2.01-.36 3.65-2 2.6-2.6 4.35-3.65 7.64-3.65 3.3 0 5.05 1.05 7.65 3.65 1.63 1.64 2.23 2 3.65 2 1.4 0 2.01-.36 3.65-2 2.6-2.6 4.35-3.65 7.64-3.65s5.04 1.05 7.64 3.65c1.64 1.64 2.24 2 3.65 2 1.42 0 2.02-.36 3.65-2 2.6-2.6 4.36-3.65 7.65-3.65 3.3 0 5.04 1.05 7.64 3.65 1.64 1.64 2.24 2 3.65 2a2.82 2.82 0 0 1 0 5.65c-3.29 0-5.04-1.05-7.64-3.65-1.64-1.64-2.24-2-3.65-2-1.41 0-2.02.36-3.65 2-2.6 2.6-4.35 3.65-7.65 3.65-3.29 0-5.04-1.05-7.64-3.65-1.63-1.64-2.24-2-3.65-2-1.41 0-2.01.36-3.65 2-2.6 2.6-4.35 3.65-7.64 3.65s-5.05-1.05-7.65-3.65c-1.63-1.64-2.23-2-3.65-2-1.41 0-2.01.36-3.65 2-2.6 2.6-4.35 3.65-7.64 3.65m28.23-227.99h11.3v-5.65h-11.3v5.65zm-8.47-25.41a14.12 14.12 0 1 1 16.94 13.83v-8.18a2.82 2.82 0 0 0-.82-2l-.83-.83h4.48a2.82 2.82 0 0 0 0-5.65h-11.3a2.82 2.82 0 0 0-2 4.83l4.83 4.81v7.02c-6.45-1.3-11.3-7-11.3-13.83zm33.89 0a19.77 19.77 0 1 0-31.06 16.22V83.3a2.82 2.82 0 0 0 2.82 2.82h16.94a2.82 2.82 0 0 0 2.82-2.83V71.27a19.73 19.73 0 0 0 8.47-16.21zm-16.95-25.43a2.82 2.82 0 0 1-5.64 0V24a2.82 2.82 0 0 1 5.64 0v5.64zm17.53 9.06a2.82 2.82 0 1 1-4-4l4.24-4.23a2.82 2.82 0 1 1 4 4l-4.24 4.23zm5.06 19.2a2.82 2.82 0 0 1 0-5.66h5.65a2.82 2.82 0 0 1 0 5.65h-5.65zm-45.76-19.2a2.82 2.82 0 0 0 4-4l-4.24-4.23a2.82 2.82 0 0 0-4 4l4.24 4.23zm-10.7 19.2a2.82 2.82 0 0 1 0-5.66h5.64a2.82 2.82 0 0 1 0 5.65h-5.65zm87.52 16.23h11.01a14.13 14.13 0 0 0-11-11.01v11zm-2.82 5.64a2.82 2.82 0 0 1-2.83-2.82V60a2.82 2.82 0 0 1 2.83-2.82 19.77 19.77 0 0 1 19.76 19.76 2.82 2.82 0 0 1-2.82 2.83h-16.94zm-9.18 9.18a2.82 2.82 0 0 1-2.82-2.82V69.41a16.95 16.95 0 0 0 2.82 33.65 17.1 17.1 0 0 0 16.67-14.12h-16.67zm2.83-5.64h16.94a2.82 2.82 0 0 1 2.82 2.85c-.13 12.4-10.23 22.56-22.59 22.56a22.6 22.6 0 0 1 0-45.18 2.82 2.82 0 0 1 2.83 2.82V83.3zm74.66 54.1a2.82 2.82 0 0 0-3.86 1 15.62 15.62 0 0 1-13.5 7.7 15.6 15.6 0 0 1-14.36-9.4 2.82 2.82 0 0 0 2.5-5l-4.7-3.16a2.81 2.81 0 0 0-.88-.53 2.82 2.82 0 0 0-3.58 1.12l-3.42 5.75a2.82 2.82 0 1 0 4.58 3.26 21.24 21.24 0 0 0 19.86 13.6c7.65 0 14.59-4.04 18.37-10.48a2.82 2.82 0 0 0-1-3.87m5.92-14.89a2.82 2.82 0 0 0-3.46.47 21.25 21.25 0 0 0-19.85-13.57 21.27 21.27 0 0 0-18.37 10.5 2.82 2.82 0 0 0 4.87 2.85 15.62 15.62 0 0 1 13.5-7.7 15.6 15.6 0 0 1 14.43 9.57 2.82 2.82 0 0 0-2.7 4.93l5.15 3.46a2.82 2.82 0 0 0 4-.9l3.42-5.74a2.82 2.82 0 0 0-.99-3.87M62.12 221.63H44.78a2.81 2.81 0 0 0-2.43-1.4 2.81 2.81 0 0 0-2.43 1.4H22.6V193.4h8.47a2.82 2.82 0 0 0 2.82-2.83c0-1.36.42-2 1.26-2.41a4.08 4.08 0 0 1 1.57-.4H48c1.36 0 2 .41 2.42 1.25a4.07 4.07 0 0 1 .4 1.56 2.82 2.82 0 0 0 2.83 2.83h8.47v28.23zm2.82-33.88h-8.96a9.19 9.19 0 0 0-.51-1.26c-1.35-2.7-3.9-4.39-7.47-4.39H36.7c-.32 0-.78.04-1.34.13a9.65 9.65 0 0 0-2.74.88 7.6 7.6 0 0 0-3.98 4.64h-8.88a2.82 2.82 0 0 0-2.82 2.82v33.89a2.82 2.82 0 0 0 2.83 2.82h19.76v2.82a2.82 2.82 0 0 0 5.65 0v-2.82h19.76a2.82 2.82 0 0 0 2.83-2.82v-33.89a2.82 2.82 0 0 0-2.83-2.82zm-22.59 25.41a7.06 7.06 0 1 1 0-14.12 7.06 7.06 0 0 1 0 14.12m0-19.76a12.7 12.7 0 1 0 0 25.4 12.7 12.7 0 0 0 0-25.4m0 60.7a2.82 2.82 0 0 0-2.82 2.83v7.06a2.82 2.82 0 0 0 5.65 0v-7.06a2.82 2.82 0 0 0-2.83-2.83m0-16.94a2.82 2.82 0 0 0-2.82 2.83v7.06a2.82 2.82 0 0 0 5.65 0v-7.06a2.82 2.82 0 0 0-2.83-2.83m0 33.89a2.82 2.82 0 0 0-2.82 2.82v7.06a2.82 2.82 0 0 0 5.65 0v-7.06a2.82 2.82 0 0 0-2.83-2.83m152.47 7.06a2.82 2.82 0 1 0 0 5.65 2.82 2.82 0 0 0 0-5.65m11.3 7.77h-22.6v-39.53h22.6v39.53zm2.82-45.18H180.71a2.82 2.82 0 0 0-2.83 2.83v45.17a2.82 2.82 0 0 0 2.83 2.83h28.23a2.82 2.82 0 0 0 2.83-2.83v-45.17a2.82 2.82 0 0 0-2.83-2.83zM86.12 88.22a14.12 14.12 0 1 1 0-28.23 14.12 14.12 0 0 1 0 28.23m2.82-33.68v-3.03h2.82a2.82 2.82 0 0 0 0-5.64H80.47a2.82 2.82 0 0 0 0 5.64h2.82v3.03a19.77 19.77 0 1 0 5.65 0m0 18.4l4.82 4.81a2.82 2.82 0 1 1-4 4l-5.64-5.65a2.82 2.82 0 0 1-.83-2v-7.76a2.82 2.82 0 0 1 5.65 0v6.6zm59.42 32.59l3.3-3.31a2.82 2.82 0 0 0-3.99-4l-3.3 3.31-3.31-3.3a2.82 2.82 0 0 0-4 3.99l3.31 3.3-3.3 3.32a2.82 2.82 0 0 0 3.99 3.99l3.3-3.31 3.31 3.31a2.82 2.82 0 0 0 4-4l-3.31-3.3zM81.88 122.1h33.89v-11.3H81.88v11.3zm-2.82 5.65a2.82 2.82 0 0 1-2.82-2.82v-16.94a2.82 2.82 0 0 1 2.82-2.83h39.53a2.82 2.82 0 0 1 2.82 2.83v16.94a2.82 2.82 0 0 1-2.82 2.82H79.06zm29.65-8.47a2.82 2.82 0 1 0 0-5.65 2.82 2.82 0 0 0 0 5.65m-26.83 28.23h33.89v-11.29H81.88v11.3zm-2.82 5.65a2.82 2.82 0 0 1-2.82-2.82V133.4a2.82 2.82 0 0 1 2.82-2.83h39.53a2.82 2.82 0 0 1 2.82 2.83v16.94a2.82 2.82 0 0 1-2.82 2.82H79.06zm29.65-8.47a2.82 2.82 0 1 0 0-5.65 2.82 2.82 0 0 0 0 5.65m73.4-8.47a2.82 2.82 0 1 0 0 5.65 2.82 2.82 0 0 0 0-5.65m9.89 0a2.82 2.82 0 1 0 0 5.65 2.82 2.82 0 0 0 0-5.65m10.59 0a2.82 2.82 0 1 0 0 5.65 2.82 2.82 0 0 0 0-5.65m7.76 11.3c0 .77-.63 1.4-1.4 1.4h-33.89c-.78 0-1.41-.62-1.41-1.4v-9.18c0-5.85 4.74-10.59 10.59-10.59h15.53c5.84 0 10.58 4.74 10.58 10.59v9.17zm4.86-32.85a2.82 2.82 0 0 0-3.82 1.16l-4.28 8.03a16.16 16.16 0 0 0-7.35-1.76h-15.52a16.16 16.16 0 0 0-7.35 1.76l-4.28-8.03a2.82 2.82 0 1 0-4.98 2.66l4.7 8.82a16.17 16.17 0 0 0-4.33 11.03v9.18a7.06 7.06 0 0 0 7.06 7.05h33.88a7.06 7.06 0 0 0 7.06-7.05v-9.18c0-4.26-1.64-8.14-4.33-11.03l4.7-8.82a2.82 2.82 0 0 0-1.16-3.82zm6.44 178.26a2.82 2.82 0 0 0-5.65 0 2.82 2.82 0 0 1-2.82 2.82 2.82 2.82 0 0 0 0 5.65 8.47 8.47 0 0 0 8.47-8.47m11.3 0a2.82 2.82 0 0 0-5.66 0c0 7.8-6.32 14.12-14.11 14.12a2.82 2.82 0 0 0 0 5.64 19.77 19.77 0 0 0 19.76-19.76m11.3 0a2.82 2.82 0 0 0-5.65 0 25.41 25.41 0 0 1-25.41 25.4 2.82 2.82 0 0 0 0 5.66 31.06 31.06 0 0 0 31.06-31.06m-18.36-94.6h4.24v-11.29h-4.24v11.3zm-2.82 5.66h9.88a2.82 2.82 0 0 0 2.83-2.83v-16.94a2.82 2.82 0 0 0-2.83-2.82h-9.88a2.82 2.82 0 0 0-2.83 2.82v16.94a2.82 2.82 0 0 0 2.83 2.83zm20.47-5.65h4.24V170.1h-4.24v28.24zm-2.82 5.65h9.88a2.82 2.82 0 0 0 2.82-2.83v-33.88a2.82 2.82 0 0 0-2.82-2.82h-9.88a2.82 2.82 0 0 0-2.83 2.82v33.88a2.82 2.82 0 0 0 2.83 2.83zm20.47-5.65h4.23v-23.3h-4.23v23.3zm7.06-28.94h-9.89a2.82 2.82 0 0 0-2.82 2.82v28.94a2.82 2.82 0 0 0 2.82 2.83h9.88a2.82 2.82 0 0 0 2.83-2.83v-28.94a2.82 2.82 0 0 0-2.82-2.82zm0 40.23h-45.18a2.82 2.82 0 0 0 0 5.65h45.18a2.82 2.82 0 0 0 0-5.65m-144 64.94h39.53v-28.23h-39.53v28.23zm42.35-33.88H121.4a2.82 2.82 0 0 0-2.82 2.83v33.88a2.82 2.82 0 0 0 2.82 2.82h45.18a2.82 2.82 0 0 0 2.82-2.82v-33.88a2.82 2.82 0 0 0-2.82-2.83zm-11.3 42.36h-22.58a2.82 2.82 0 0 0 0 5.64h22.58a2.82 2.82 0 0 0 0-5.64M70.6 299.4l-5.65-1.06v-4.01h5.65v5.07zm3.67-53.07l1.82 33.94a2.86 2.86 0 0 0-.55-.06H59.45l1.82-33.88h13zm-12.51 39.53h12.03l-1.88 2.82h-8.27l-1.88-2.82zm20.13-2.98l-2.12-39.53a2.82 2.82 0 0 0-2.82-2.67H58.6a2.82 2.82 0 0 0-2.82 2.67l-2.12 39.53c-.03.61.13 1.21.47 1.72l5.17 7.76v8.32c0 1.36.97 2.53 2.3 2.78l11.3 2.11a2.82 2.82 0 0 0 3.35-2.77v-10.44l5.17-7.76a2.82 2.82 0 0 0 .47-1.72zM64.94 122.1H19.77a2.82 2.82 0 0 0-2.83 2.83v11.3a2.82 2.82 0 0 0 5.65 0v-8.48h39.53V156H19.77a2.82 2.82 0 0 0 0 5.64h6.72l-3.6 7.21a2.82 2.82 0 0 0 5.05 2.53l4.86-9.74h19.8l4.87 9.74a2.82 2.82 0 0 0 5.06-2.53l-3.6-7.2h6.01a2.82 2.82 0 0 0 2.83-2.83v-33.88a2.82 2.82 0 0 0-2.83-2.83m91.52 228.79l-10.47 10.4a2.82 2.82 0 0 1-4.81-2.01V325.4a8.47 8.47 0 0 1 8.47-8.47h33.8a8.55 8.55 0 0 1 8.55 8.55v16.94a8.47 8.47 0 0 1-8.47 8.47h-27.07zm-9.64 1.6l6.48-6.43a2.82 2.82 0 0 1 2-.82h28.23a2.82 2.82 0 0 0 2.82-2.82v-16.95a2.9 2.9 0 0 0-2.9-2.9h-33.8a2.82 2.82 0 0 0-2.83 2.83v27.1zm11.3-18.55a2.82 2.82 0 1 1-5.65 0 2.82 2.82 0 0 1 5.65 0m11.3 0a2.82 2.82 0 1 1-5.66 0 2.82 2.82 0 0 1 5.65 0m8.47 2.83a2.82 2.82 0 1 1 0-5.65 2.82 2.82 0 0 1 0 5.65m-47.3-1.83c0 16.68-16.35 16.59-16.94 16.59H99.53s-2.82 0-2.82-2.8 2.82-2.8 2.82-2.8l14.11-.05c.05 0 11.3.42 11.3-10.94s-11.2-11-11.3-11.01H91.07s-6.35.06-6.35 6.41c0 4.24 2.11 6.36 6.35 6.36H114s1.76.01 1.76-1.76-1.76-1.83-1.76-1.83l-22.94.06s-2.83 0-2.83-2.83 2.83-2.82 2.83-2.82h22.58s7.77-.35 7.77 7.42-7.76 7.4-7.76 7.4h-22.4s-12.2 0-12.2-12c0-11.99 12-11.99 12-11.99h22.6s16.94-.1 16.94 16.59"/>
</svg>